<?xml version="1.0" standalone="no"?>
<!DOCTYPE svg PUBLIC "-//W3C//DTD SVG 20010904//EN"
 "http://www.w3.org/TR/2001/REC-SVG-20010904/DTD/svg10.dtd">
<svg version="1.0" xmlns="http://www.w3.org/2000/svg"
 width="181.000000pt" height="181.000000pt" viewBox="0 0 181.000000 181.000000"
 preserveAspectRatio="xMidYMid meet">
<metadata>
Created by potrace 1.11, written by Peter Selinger 2001-2013
</metadata>
<g transform="translate(0.000000,181.000000) scale(0.100000,-0.100000)"
fill="#000000" stroke="none">
<path d="M808 1725 c-2 -1 -23 -5 -46 -9 -70 -9 -201 -59 -282 -106 -96 -56
-224 -183 -280 -278 -134 -227 -156 -498 -60 -734 106 -260 339 -452 610 -502
77 -15 254 -16 300 -3 8 2 33 7 54 12 111 23 261 104 357 193 134 123 221 284
256 467 9 51 10 216 1 275 -44 287 -269 551 -548 644 -41 13 -88 28 -105 31
-31 7 -251 15 -257 10z"/>
</g>
</svg>
