<?xml version="1.0" standalone="yes"?>

<svg version="1.1" viewBox="0.0 0.0 181.10498687664042 181.10498687664042" fill="none" stroke="none" stroke-linecap="square" stroke-miterlimit="10" xmlns="http://www.w3.org/2000/svg" xmlns:xlink="http://www.w3.org/1999/xlink"><clipPath id="p.0"><path d="m0 0l181.10498 0l0 181.10498l-181.10498 0l0 -181.10498z" clip-rule="nonzero"></path></clipPath><g clip-path="url(#p.0)"><path fill="#000000" fill-opacity="0.0" d="m0 0l181.10498 0l0 181.10498l-181.10498 0z" fill-rule="evenodd"></path><path fill="#c9daf8" d="m8.521004 90.55249l0 0c0 -45.30474 36.726753 -82.031494 82.031494 -82.031494l0 0c21.756104 0 42.62113 8.642579 58.005028 24.02647c15.383896 15.383888 24.026474 36.24892 24.026474 58.005024l0 0c0 45.30475 -36.72676 82.031494 -82.0315 82.031494l0 0c-45.30474 0 -82.031494 -36.726746 -82.031494 -82.031494z" fill-rule="evenodd"></path><path stroke="#c9daf8" stroke-width="1.0" stroke-linejoin="round" stroke-linecap="butt" d="m8.521004 90.55249l0 0c0 -45.30474 36.726753 -82.031494 82.031494 -82.031494l0 0c21.756104 0 42.62113 8.642579 58.005028 24.02647c15.383896 15.383888 24.026474 36.24892 24.026474 58.005024l0 0c0 45.30475 -36.72676 82.031494 -82.0315 82.031494l0 0c-45.30474 0 -82.031494 -36.726746 -82.031494 -82.031494z" fill-rule="evenodd"></path><path fill="#e69138" d="m54.5514 142.0971l66.61374 0c2.911171 0 5.7031097 -1.1564484 7.7616196 -3.2149658c2.0585175 -2.0585175 3.214981 -4.8504486 3.214981 -7.761627l0 -54.881668c0 -4.119873E-4 -3.3569336E-4 -7.4005127E-4 -7.4768066E-4 -7.4005127E-4l-88.56619 7.4005127E-4l0 0c-4.081726E-4 0 -7.362366E-4 3.2806396E-4 -7.362366E-4 7.4005127E-4l7.362366E-4 54.880928l0 0c0 6.06221 4.9143906 10.976593 10.976597 10.976593z" fill-rule="evenodd"></path><path fill="#b45f06" d="m26.504875 59.816753l0 0c-2.6732807 9.238384 2.8707237 18.959972 12.382877 21.71378q8.472477 2.4528046 17.023178 4.6352997q2.6594162 -8.148048 5.0405083 -16.376678l0 0c2.6732826 -9.238388 -2.8707237 -18.95998 -12.382877 -21.71378l0 0c-9.512157 -2.7538033 -19.390406 2.5029945 -22.063686 11.741379z" fill-rule="evenodd"></path><path fill="#b45f06" d="m148.42587 59.816753l0 0c2.6732788 9.238384 -2.8707123 18.959972 -12.382874 21.71378q-8.472481 2.4528046 -17.023178 4.6352997q-2.6594162 -8.148048 -5.040512 -16.376678l0 0c-2.6732788 -9.238388 2.8707275 -18.95998 12.382881 -21.71378l0 0c9.512154 -2.7538033 19.390404 2.5029945 22.063683 11.741379z" fill-rule="evenodd"></path><path fill="#e69138" d="m121.62456 65.35696l-67.51251 0c-2.7918358 0 -5.469326 1.1090546 -7.443451 3.0831757c-1.9741249 1.9741287 -3.0831795 4.651619 -3.0831795 7.443451l0 52.63189c0 3.9672852E-4 3.3187866E-4 7.324219E-4 7.4005127E-4 7.324219E-4l88.565025 -7.324219E-4l0 0c4.119873E-4 0 7.4768066E-4 -3.3569336E-4 7.4768066E-4 -7.4768066E-4l-7.4768066E-4 -52.63114l0 0c0 -5.813698 -4.712929 -10.526627 -10.526627 -10.526627z" fill-rule="evenodd"></path><path fill="#c9daf8" d="m100.90749 95.000565l0 0c0 -5.292885 4.382118 -9.583611 9.787727 -9.583611l0 0c2.5958633 0 5.085411 1.009697 6.9209595 2.8069763c1.835556 1.7972717 2.8667603 4.2349014 2.8667603 6.776634l0 0c0 5.292877 -4.3821106 9.583611 -9.78772 9.583611l0 0c-5.405609 0 -9.787727 -4.2907333 -9.787727 -9.583611z" fill-rule="evenodd"></path><path fill="#cfe2f3" d="m57.714897 95.000565l0 0c0 -5.292885 4.3821106 -9.583611 9.78772 -9.583611l0 0c2.5958633 0 5.085411 1.009697 6.920967 2.8069763c1.835556 1.7972717 2.8667603 4.2349014 2.8667603 6.776634l0 0c0 5.292877 -4.382118 9.583611 -9.787727 9.583611l0 0c-5.405609 0 -9.78772 -4.2907333 -9.78772 -9.583611z" fill-rule="evenodd"></path><path fill="#434343" d="m88.62222 120.73572c2.6405182 -6.044029 12.938522 0 0 7.7708893c-12.938522 -7.7708893 -2.6405106 -13.8149185 0 -7.7708893z" fill-rule="evenodd"></path><path fill="#4d5057" d="m104.90928 96.08216l0 0c0 -3.0651474 2.5892334 -5.5499344 5.7832108 -5.5499344l0 0c1.5338058 0 3.0047836 0.5847244 4.089348 1.625534c1.0845642 1.0408173 1.6938629 2.4524689 1.6938629 3.9244003l0 0c0 3.0651474 -2.5892334 5.549942 -5.7832108 5.549942l0 0c-3.1939774 0 -5.7832108 -2.4847946 -5.7832108 -5.549942z" fill-rule="evenodd"></path><path fill="#4d5057" d="m61.718235 96.08216l0 0c0 -3.0651474 2.5892372 -5.5499344 5.7832146 -5.5499344l0 0c1.5338058 0 3.0047836 0.5847244 4.089348 1.625534c1.0845642 1.0408173 1.6938629 2.4524689 1.6938629 3.9244003l0 0c0 3.0651474 -2.5892334 5.549942 -5.7832108 5.549942l0 0c-3.1939774 0 -5.7832146 -2.4847946 -5.7832146 -5.549942z" fill-rule="evenodd"></path><path fill="#b45f06" d="m76.807625 114.94583l0 0c-6.3718567 6.3289185 -6.280472 16.755478 0.20410919 23.288376q4.478752 4.5121155 11.692986 6.3071747q7.1847763 -1.5666046 11.585663 -5.9378357l0 0c6.3718567 -6.328903 6.280472 -16.755463 -0.20410919 -23.28836l0 0c-6.4845886 -6.532898 -16.906792 -6.698265 -23.278648 -0.36935425z" fill-rule="evenodd"></path><path fill="#4d5057" d="m80.95676 119.26691l0 0c0 -4.0689697 3.4334564 -7.367523 7.6688385 -7.367523l0 0c2.0338974 0 3.984497 0.7762222 5.422676 2.157898c1.4381866 1.3816757 2.2461548 3.2556381 2.2461548 5.2096252l0 0c0 4.0689697 -3.4334564 7.367523 -7.668831 7.367523l0 0c-4.235382 0 -7.6688385 -3.2985535 -7.6688385 -7.367523z" fill-rule="evenodd"></path><path fill="#efefef" d="m83.04202 116.90682l0 0c-0.33818054 -1.5513611 1.2632217 -3.2136917 3.5768433 -3.7129211c2.3136292 -0.49922943 4.4633408 0.35369873 4.801529 1.9050598l-1.4051437 0.30319214l0 0c-0.16909027 -0.77568054 -1.5526276 -1.1355362 -3.09021 -0.8037567c-1.53759 0.33177185 -2.6469727 1.2295456 -2.4778748 2.0052261z" fill-rule="evenodd"></path><path fill="#efefef" d="m106.36652 96.56249l0 0c-0.8052063 -1.4278946 -0.20903015 -3.286049 1.3315964 -4.1503067c1.5406265 -0.8642502 3.442299 -0.40732574 4.247505 1.0205688l-1.294342 0.7260971c-0.40260315 -0.7139511 -1.398407 -0.91719055 -2.2241898 -0.45394897c-0.8257828 0.4632492 -1.1688309 1.4175491 -0.7662277 2.1315002z" fill-rule="evenodd"></path><path fill="#efefef" d="m63.175484 96.56249l0 0c-0.8052063 -1.4278946 -0.20903015 -3.286049 1.3315964 -4.1503067c1.5406265 -0.8642502 3.442299 -0.40732574 4.2474976 1.0205688l-1.2943344 0.7260971c-0.40260315 -0.7139511 -1.398407 -0.91719055 -2.2241898 -0.45394897c-0.8257828 0.4632492 -1.1688309 1.4175491 -0.76623535 2.1315002z" fill-rule="evenodd"></path></g></svg>

