<?xml version="1.0" standalone="yes"?>

<svg version="1.1" viewBox="0.0 0.0 181.10498687664042 181.10498687664042" fill="none" stroke="none" stroke-linecap="square" stroke-miterlimit="10" xmlns="http://www.w3.org/2000/svg" xmlns:xlink="http://www.w3.org/1999/xlink"><clipPath id="p.0"><path d="m0 0l181.10498 0l0 181.10498l-181.10498 0l0 -181.10498z" clip-rule="nonzero"></path></clipPath><g clip-path="url(#p.0)"><path fill="#000000" fill-opacity="0.0" d="m0 0l181.10498 0l0 181.10498l-181.10498 0z" fill-rule="evenodd"></path><path fill="#2bff8e" fill-opacity="0.7308" d="m8.521004 90.55249l0 0c0 -45.30474 36.726753 -82.031494 82.031494 -82.031494l0 0c21.756104 0 42.62113 8.642579 58.005028 24.02647c15.383896 15.383888 24.026474 36.24892 24.026474 58.005024l0 0c0 45.30475 -36.72676 82.031494 -82.0315 82.031494l0 0c-45.30474 0 -82.031494 -36.726746 -82.031494 -82.031494z" fill-rule="evenodd"></path><path fill="#000000" d="m57.761333 85.61354l0 0c-9.645416 1.8612442 -18.846493 -3.7651596 -20.551182 -12.566925q-1.4864197 -7.6747894 -2.3290977 -15.473793q8.2966385 -2.210369 16.70705 -3.8332977l0 0c9.645412 -1.8612442 18.846489 3.7651634 20.551178 12.566933l0 0c1.704689 8.801765 -4.7325363 17.445839 -14.377949 19.307083z" fill-rule="evenodd"></path><path fill="#000000" d="m110.39445 67.887245l0 0c2.2874222 -9.54974 11.213524 -15.599186 19.937004 -13.51181q7.606537 1.8201065 15.06041 4.2775726q-1.412323 8.466301 -3.4068604 16.793297l0 0c-2.2874146 9.549736 -11.213516 15.599182 -19.937004 13.51181l0 0c-8.7234955 -2.0873795 -13.940964 -11.521126 -11.653549 -21.07087z" fill-rule="evenodd"></path><path fill="#ea9999" d="m115.90515 69.210014l0 0c1.652504 -6.905735 7.5961914 -11.404037 13.275589 -10.047245q4.9522095 1.1830711 9.794128 2.827034q-1.0618744 6.112072 -2.5027924 12.1335945l0 0c-1.6524963 6.905739 -7.5961914 11.404037 -13.275589 10.047249l0 0c-5.6793976 -1.3567963 -8.94384 -8.054901 -7.291336 -14.960632z" fill-rule="evenodd"></path><path stroke="#ea9999" stroke-width="1.0" stroke-linejoin="round" stroke-linecap="butt" d="m115.90515 69.210014l0 0c1.652504 -6.905735 7.5961914 -11.404037 13.275589 -10.047245q4.9522095 1.1830711 9.794128 2.827034q-1.0618744 6.112072 -2.5027924 12.1335945l0 0c-1.6524963 6.905739 -7.5961914 11.404037 -13.275589 10.047249l0 0c-5.6793976 -1.3567963 -8.94384 -8.054901 -7.291336 -14.960632z" fill-rule="evenodd"></path><path fill="#ea9999" d="m56.26543 80.116974l0 0c-7.018799 1.0697861 -13.420773 -2.7375565 -14.299213 -8.503937q-0.7659607 -5.0280457 -1.0634804 -10.127487q6.0614815 -1.3176575 12.181591 -2.2504616l0 0c7.0188026 -1.0697784 13.420776 2.7375603 14.299217 8.503933l0 0c0.8784332 5.7663803 -4.099312 11.308174 -11.118114 12.377953z" fill-rule="evenodd"></path><path stroke="#ea9999" stroke-width="1.0" stroke-linejoin="round" stroke-linecap="butt" d="m56.26543 80.116974l0 0c-7.018799 1.0697861 -13.420773 -2.7375565 -14.299213 -8.503937q-0.7659607 -5.0280457 -1.0634804 -10.127487q6.0614815 -1.3176575 12.181591 -2.2504616l0 0c7.0188026 -1.0697784 13.420776 2.7375603 14.299217 8.503933l0 0c0.8784332 5.7663803 -4.099312 11.308174 -11.118114 12.377953z" fill-rule="evenodd"></path><path fill="#434343" d="m122.278 127.839905l-66.50877 0c-2.7663803 0 -5.4194603 -1.0989456 -7.3755875 -3.055069c-1.9561272 -1.956131 -3.055069 -4.609207 -3.055069 -7.3755875l0 -38.27932c0 -7.661682 6.2110214 -13.872704 13.872704 -13.872704l59.624676 0c7.661682 0 13.872696 6.2110214 13.872696 13.872704l0 38.27932l0 0c0 5.760689 -4.6699524 10.430656 -10.430649 10.430656z" fill-rule="evenodd"></path><path fill="#4d5057" d="m61.802227 95.98768l0 0c0 -3.0651474 2.5892296 -5.549942 5.7832146 -5.549942l0 0c1.5337982 0 3.0047836 0.5847244 4.089348 1.6255417c1.0845566 1.0408096 1.6938629 2.4524612 1.6938629 3.9244003l0 0c0 3.0651474 -2.5892334 5.5499344 -5.7832108 5.5499344l0 0c-3.193985 0 -5.7832146 -2.484787 -5.7832146 -5.5499344z" fill-rule="evenodd"></path><path fill="#000000" d="m83.308586 136.60446l0 0c-3.7398834 -4.2530212 -3.528366 -10.577446 0.472435 -14.125984q3.5635147 -3.1606827 7.2364655 -6.1969147q3.4481735 3.6843338 6.7792816 7.4725113l0 0c3.7398834 4.2530212 3.528366 10.577438 -0.472435 14.125977l0 0c-4.0008087 3.5485382 -10.275871 2.9774475 -14.015747 -1.275589z" fill-rule="evenodd"></path><path fill="#000000" d="m95.49475 136.66566l0 0c-5.401085 -1.6786041 -8.496307 -7.18515 -6.9133835 -12.29921q1.4099121 -4.555107 2.9778595 -9.061089q4.8570633 1.3454819 9.667809 2.8406143l0 0c5.401085 1.6785965 8.496315 7.1851425 6.9133835 12.29921l0 0c-1.5829239 5.1140747 -7.244583 7.8990784 -12.645668 6.2204742z" fill-rule="evenodd"></path><path stroke="#434343" stroke-width="1.0" stroke-linejoin="round" stroke-linecap="butt" d="m95.49475 136.66566l0 0c-5.401085 -1.6786041 -8.496307 -7.18515 -6.9133835 -12.29921q1.4099121 -4.555107 2.9778595 -9.061089q4.8570633 1.3454819 9.667809 2.8406143l0 0c5.401085 1.6785965 8.496315 7.1851425 6.9133835 12.29921l0 0c-1.5829239 5.1140747 -7.244583 7.8990784 -12.645668 6.2204742z" fill-rule="evenodd"></path><path fill="#efefef" d="m63.25947 96.468l0 0c-0.8052063 -1.4278946 -0.20903015 -3.286049 1.3316002 -4.150299c1.5406189 -0.8642578 3.4422913 -0.40733337 4.2474976 1.0205612l-1.294342 0.7260971c-0.40259552 -0.7139511 -1.3983994 -0.91719055 -2.2241821 -0.45394135c-0.8257828 0.46324158 -1.1688385 1.4175415 -0.76623535 2.1314926z" fill-rule="evenodd"></path><path fill="#000000" d="m71.50896 128.58768l0 0c-0.6697006 -5.618515 3.0882874 -10.702026 8.3937 -11.354332q4.725525 -0.5810089 9.470657 -0.997612q0.7517395 4.9853287 1.3482361 9.989738l0 0c0.6697006 5.6185226 -3.0882874 10.702034 -8.3937 11.354332l0 0c-5.3054123 0.652298 -10.1492 -3.3736115 -10.818893 -8.992126z" fill-rule="evenodd"></path><path stroke="#434343" stroke-width="1.0" stroke-linejoin="round" stroke-linecap="butt" d="m71.50896 128.58768l0 0c-0.6697006 -5.618515 3.0882874 -10.702026 8.3937 -11.354332q4.725525 -0.5810089 9.470657 -0.997612q0.7517395 4.9853287 1.3482361 9.989738l0 0c0.6697006 5.6185226 -3.0882874 10.702034 -8.3937 11.354332l0 0c-5.3054123 0.652298 -10.1492 -3.3736115 -10.818893 -8.992126z" fill-rule="evenodd"></path><path fill="#6a6a6a" d="m90.5538 116.3832c2.0013123 -4.2992096 9.806435 0 0 5.5275574c-9.806427 -5.5275574 -2.0013123 -9.826767 0 -5.5275574z" fill-rule="evenodd"></path><path fill="#000000" d="m86.49338 100.06535l0 0c-4.914032 6.7665787 -14.777863 7.9933853 -22.031494 2.740158q-6.5669327 -4.755905 -13.133862 -9.51181q4.448822 -6.125984 8.89764 -12.251968l0 0c4.914032 -6.7665787 14.777863 -7.9933853 22.031494 -2.740158l0 0c7.2536316 5.253227 9.150253 14.997208 4.2362213 21.763779z" fill-rule="evenodd"></path><path stroke="#434343" stroke-width="1.0" stroke-linejoin="round" stroke-linecap="butt" d="m86.49338 100.06535l0 0c-4.914032 6.7665787 -14.777863 7.9933853 -22.031494 2.740158q-6.5669327 -4.755905 -13.133862 -9.51181q4.448822 -6.125984 8.89764 -12.251968l0 0c4.914032 -6.7665787 14.777863 -7.9933853 22.031494 -2.740158l0 0c7.2536316 5.253227 9.150253 14.997208 4.2362213 21.763779z" fill-rule="evenodd"></path><path fill="#2bff8e" fill-opacity="0.7308" d="m61.139107 90.53543l0 0c0 -6.531746 5.4712906 -11.826767 12.220474 -11.826767l0 0c3.2410736 0 6.3493958 1.2460251 8.641174 3.4639816c2.2917862 2.217949 3.5793 5.2261353 3.5793 8.362785l0 0c0 6.531746 -5.471298 11.826775 -12.220474 11.826775l0 0c-6.7491837 0 -12.220474 -5.2950287 -12.220474 -11.826775z" fill-rule="evenodd"></path><path fill="#f4e76e" d="m71.27255 91.055115l2.0866165 -7.9789963l2.0866165 7.9789963l-2.0866165 7.979004z" fill-rule="evenodd"></path><path fill="#000000" fill-opacity="0.0" d="m71.27255 91.055115l4.173233 0" fill-rule="evenodd"></path><path fill="#000000" fill-opacity="0.0" d="m71.27255 91.055115l2.0866165 -7.9789963l2.0866165 7.9789963l-2.0866165 7.979004z" fill-rule="evenodd"></path><path stroke="#f4e76e" stroke-width="1.0" stroke-linejoin="round" stroke-linecap="butt" d="m71.27255 91.055115l4.173233 0" fill-rule="evenodd"></path><path stroke="#f4e76e" stroke-width="1.0" stroke-linejoin="round" stroke-linecap="butt" d="m71.27255 91.055115l2.0866165 -7.9789963l2.0866165 7.9789963l-2.0866165 7.979004z" fill-rule="evenodd"></path><path fill="#000000" d="m72.749054 91.0538l0.6102371 -5.5498657l0.6102371 5.5498657l-0.6102371 5.5498734z" fill-rule="evenodd"></path><path fill="#000000" fill-opacity="0.0" d="m72.749054 91.0538l1.2204742 0" fill-rule="evenodd"></path><path fill="#000000" fill-opacity="0.0" d="m72.749054 91.0538l0.6102371 -5.5498657l0.6102371 5.5498657l-0.6102371 5.5498734z" fill-rule="evenodd"></path><path stroke="#000000" stroke-width="1.0" stroke-linejoin="round" stroke-linecap="butt" d="m72.749054 91.0538l1.2204742 0" fill-rule="evenodd"></path><path stroke="#000000" stroke-width="1.0" stroke-linejoin="round" stroke-linecap="butt" d="m72.749054 91.0538l0.6102371 -5.5498657l0.6102371 5.5498657l-0.6102371 5.5498734z" fill-rule="evenodd"></path><path fill="#f3f3f3" d="m71.27251 87.685036l0.6102371 -2.181099l0.6102371 2.181099l-0.6102371 2.1811066z" fill-rule="evenodd"></path><path fill="#000000" fill-opacity="0.0" d="m71.27251 87.685036l1.2204742 0" fill-rule="evenodd"></path><path fill="#000000" fill-opacity="0.0" d="m71.27251 87.685036l0.6102371 -2.181099l0.6102371 2.181099l-0.6102371 2.1811066z" fill-rule="evenodd"></path><path stroke="#f3f3f3" stroke-width="1.0" stroke-linejoin="round" stroke-linecap="butt" d="m71.27251 87.685036l1.2204742 0" fill-rule="evenodd"></path><path stroke="#f3f3f3" stroke-width="1.0" stroke-linejoin="round" stroke-linecap="butt" d="m71.27251 87.685036l0.6102371 -2.181099l0.6102371 2.181099l-0.6102371 2.1811066z" fill-rule="evenodd"></path><path fill="#000000" d="m95.38375 79.104546l0 0c5.9142303 -5.9142303 15.848572 -5.5828476 22.188972 0.7401581q5.740158 5.724411 11.480316 11.448822q-5.354332 5.354332 -10.708656 10.708656l0 0c-5.9142303 5.9142303 -15.848579 5.582855 -22.18898 -0.7401581l0 0c-6.3404007 -6.3230057 -6.6858826 -16.243248 -0.7716522 -22.157478z" fill-rule="evenodd"></path><path stroke="#434343" stroke-width="1.0" stroke-linejoin="round" stroke-linecap="butt" d="m95.38375 79.104546l0 0c5.9142303 -5.9142303 15.848572 -5.5828476 22.188972 0.7401581q5.740158 5.724411 11.480316 11.448822q-5.354332 5.354332 -10.708656 10.708656l0 0c-5.9142303 5.9142303 -15.848579 5.582855 -22.18898 -0.7401581l0 0c-6.3404007 -6.3230057 -6.6858826 -16.243248 -0.7716522 -22.157478z" fill-rule="evenodd"></path><path fill="#2dffdd" fill-opacity="0.7308" d="m94.64304 90.56956l0 0c0 -6.531746 5.4712906 -11.826775 12.220474 -11.826775l0 0c3.2410736 0 6.3493958 1.2460327 8.641182 3.4639816c2.2917786 2.217949 3.5792923 5.2261353 3.5792923 8.362793l0 0c0 6.531746 -5.4712906 11.826767 -12.220474 11.826767l0 0c-6.7491837 0 -12.220474 -5.295021 -12.220474 -11.826767z" fill-rule="evenodd"></path><path fill="#f4e76e" d="m104.77649 90.56956l2.0866165 -7.979004l2.0866165 7.979004l-2.0866165 7.9789963z" fill-rule="evenodd"></path><path fill="#000000" fill-opacity="0.0" d="m104.77649 90.56956l4.173233 0" fill-rule="evenodd"></path><path fill="#000000" fill-opacity="0.0" d="m104.77649 90.56956l2.0866165 -7.979004l2.0866165 7.979004l-2.0866165 7.9789963z" fill-rule="evenodd"></path><path stroke="#f4e76e" stroke-width="1.0" stroke-linejoin="round" stroke-linecap="butt" d="m104.77649 90.56956l4.173233 0" fill-rule="evenodd"></path><path stroke="#f4e76e" stroke-width="1.0" stroke-linejoin="round" stroke-linecap="butt" d="m104.77649 90.56956l2.0866165 -7.979004l2.0866165 7.979004l-2.0866165 7.9789963z" fill-rule="evenodd"></path><path fill="#000000" d="m106.25299 91.08924l0.6102371 -5.5498734l0.6102371 5.5498734l-0.6102371 5.5498657z" fill-rule="evenodd"></path><path fill="#000000" fill-opacity="0.0" d="m106.25299 91.08924l1.2204742 0" fill-rule="evenodd"></path><path fill="#000000" fill-opacity="0.0" d="m106.25299 91.08924l0.6102371 -5.5498734l0.6102371 5.5498734l-0.6102371 5.5498657z" fill-rule="evenodd"></path><path stroke="#000000" stroke-width="1.0" stroke-linejoin="round" stroke-linecap="butt" d="m106.25299 91.08924l1.2204742 0" fill-rule="evenodd"></path><path stroke="#000000" stroke-width="1.0" stroke-linejoin="round" stroke-linecap="butt" d="m106.25299 91.08924l0.6102371 -5.5498734l0.6102371 5.5498734l-0.6102371 5.5498657z" fill-rule="evenodd"></path><path fill="#f3f3f3" d="m105.03104 86.14173l0.6102371 -2.181099l0.6102371 2.181099l-0.6102371 2.1811066z" fill-rule="evenodd"></path><path fill="#000000" fill-opacity="0.0" d="m105.03104 86.14173l1.2204742 0" fill-rule="evenodd"></path><path fill="#000000" fill-opacity="0.0" d="m105.03104 86.14173l0.6102371 -2.181099l0.6102371 2.181099l-0.6102371 2.1811066z" fill-rule="evenodd"></path><path stroke="#f3f3f3" stroke-width="1.0" stroke-linejoin="round" stroke-linecap="butt" d="m105.03104 86.14173l1.2204742 0" fill-rule="evenodd"></path><path stroke="#f3f3f3" stroke-width="1.0" stroke-linejoin="round" stroke-linecap="butt" d="m105.03104 86.14173l0.6102371 -2.181099l0.6102371 2.181099l-0.6102371 2.1811066z" fill-rule="evenodd"></path></g></svg>

