<?xml version="1.0" standalone="yes"?>

<svg version="1.1" viewBox="0.0 0.0 181.10498687664042 181.10498687664042" fill="none" stroke="none" stroke-linecap="square" stroke-miterlimit="10" xmlns="http://www.w3.org/2000/svg" xmlns:xlink="http://www.w3.org/1999/xlink"><clipPath id="p.0"><path d="m0 0l181.10498 0l0 181.10498l-181.10498 0l0 -181.10498z" clip-rule="nonzero"></path></clipPath><g clip-path="url(#p.0)"><path fill="#000000" fill-opacity="0.0" d="m0 0l181.10498 0l0 181.10498l-181.10498 0z" fill-rule="evenodd"></path><path fill="#f4e76e" d="m8.521004 90.55249l0 0c0 -45.30474 36.726753 -82.031494 82.031494 -82.031494l0 0c21.756104 0 42.62113 8.642579 58.005028 24.02647c15.383896 15.383888 24.026474 36.24892 24.026474 58.005024l0 0c0 45.30475 -36.72676 82.031494 -82.0315 82.031494l0 0c-45.30474 0 -82.031494 -36.726746 -82.031494 -82.031494z" fill-rule="evenodd"></path><path stroke="#f4e76e" stroke-width="1.0" stroke-linejoin="round" stroke-linecap="butt" d="m8.521004 90.55249l0 0c0 -45.30474 36.726753 -82.031494 82.031494 -82.031494l0 0c21.756104 0 42.62113 8.642579 58.005028 24.02647c15.383896 15.383888 24.026474 36.24892 24.026474 58.005024l0 0c0 45.30475 -36.72676 82.031494 -82.0315 82.031494l0 0c-45.30474 0 -82.031494 -36.726746 -82.031494 -82.031494z" fill-rule="evenodd"></path><path fill="#bf55ec" d="m61.034115 69.3902l0 0c2.6732826 -9.238384 -2.87072 -18.959972 -12.382877 -21.713776q-8.472477 -2.4528084 -17.023174 -4.6353035q-2.65942 8.148056 -5.04051 16.376686l0 0c-2.6732807 9.238384 2.8707218 18.959972 12.382879 21.713772l0 0c9.512154 2.753807 19.390404 -2.5029907 22.063683 -11.741379z" fill-rule="evenodd"></path><path fill="#bf55ec" d="m120.06986 69.3902l0 0c-2.6732788 -9.238384 2.8707275 -18.959972 12.382881 -21.713776q8.472473 -2.4528084 17.023178 -4.6353035q2.6594086 8.148056 5.040512 16.376686l0 0c2.6732788 9.238384 -2.8707275 18.959972 -12.382889 21.713772l0 0c-9.512146 2.753807 -19.390404 -2.5029907 -22.063683 -11.741379z" fill-rule="evenodd"></path><path fill="#ebc4ef" d="m121.57031 128.11624l-65.72409 0c-2.7918358 0 -5.469326 -1.1090546 -7.443451 -3.0831833c-1.9741287 -1.9741287 -3.0831795 -4.651619 -3.0831795 -7.443451l0 -52.63188c0 -4.043579E-4 3.2424927E-4 -7.247925E-4 7.209778E-4 -7.247925E-4l86.77663 7.247925E-4l0 0c3.9672852E-4 0 7.324219E-4 3.2043457E-4 7.324219E-4 7.171631E-4l-7.324219E-4 52.631165l0 0c0 5.813698 -4.712929 10.526634 -10.526627 10.526634z" fill-rule="evenodd"></path><path fill="#bf55ec" d="m90.65068 94.59948l0 0c0 -9.335007 9.012268 -16.902527 20.12947 -16.902527q10.064735 0 20.12947 0q0 8.451263 0 16.902527l0 0c0 9.335014 -9.012276 16.902534 -20.12947 16.902534l0 0c-11.117203 0 -20.12947 -7.56752 -20.12947 -16.902534z" fill-rule="evenodd"></path><path fill="#bf55ec" d="m87.70783 94.59948l0 0c0 -9.335007 -9.012268 -16.902527 -20.12947 -16.902527q-10.064732 0 -20.129467 0q0 8.451263 0 16.902527l0 0c0 9.335014 9.012272 16.902534 20.129467 16.902534l0 0c11.117203 0 20.12947 -7.56752 20.12947 -16.902534z" fill-rule="evenodd"></path><path fill="#f4e76e" d="m100.99017 94.601616l0 0c0 -5.292885 4.3821106 -9.583611 9.78772 -9.583611l0 0c2.595871 0 5.085411 1.009697 6.920967 2.8069763c1.835556 1.7972717 2.8667603 4.2349014 2.8667603 6.776634l0 0c0 5.292877 -4.382118 9.583611 -9.787727 9.583611l0 0c-5.405609 0 -9.78772 -4.2907333 -9.78772 -9.583611z" fill-rule="evenodd"></path><path fill="#f4e76e" d="m57.797573 94.601616l0 0c0 -5.292885 4.3821106 -9.583611 9.787724 -9.583611l0 0c2.5958633 0 5.085411 1.009697 6.920967 2.8069763c1.8355484 1.7972717 2.8667526 4.2349014 2.8667526 6.776634l0 0c0 5.292877 -4.3821106 9.583611 -9.78772 9.583611l0 0c-5.405613 0 -9.787724 -4.2907333 -9.787724 -9.583611z" fill-rule="evenodd"></path><path fill="#434343" d="m88.7049 120.33676c2.6405106 -6.0440216 12.938522 0 0 7.7708893c-12.938522 -7.7708893 -2.6405182 -13.814911 0 -7.7708893z" fill-rule="evenodd"></path><path fill="#4d5057" d="m104.99195 95.68321l0 0c0 -3.0651474 2.5892334 -5.549942 5.7832184 -5.549942l0 0c1.5337982 0 3.0047836 0.5847244 4.089348 1.6255417c1.0845642 1.0408173 1.6938629 2.4524689 1.6938629 3.9244003l0 0c0 3.0651474 -2.5892334 5.549942 -5.7832108 5.549942l0 0c-3.193985 0 -5.7832184 -2.4847946 -5.7832184 -5.549942z" fill-rule="evenodd"></path><path fill="#4d5057" d="m61.800915 95.68321l0 0c0 -3.0651474 2.5892296 -5.549942 5.7832146 -5.549942l0 0c1.5337982 0 3.0047836 0.5847244 4.089348 1.6255417c1.0845566 1.0408173 1.6938629 2.4524689 1.6938629 3.9244003l0 0c0 3.0651474 -2.5892334 5.549942 -5.7832108 5.549942l0 0c-3.193985 0 -5.7832146 -2.4847946 -5.7832146 -5.549942z" fill-rule="evenodd"></path><path fill="#bf55ec" d="m76.07321 140.80083l0 0c-6.822769 -6.779831 -6.6965714 -17.972275 0.28186798 -24.999031q6.215706 -6.2587357 12.631035 -12.319084q6.2812347 5.8331833 12.358276 11.871979l0 0c6.822769 6.7798233 6.6965714 17.972275 -0.28186798 24.999023l0 0c-6.978447 7.026764 -18.166542 7.2269287 -24.989311 0.44711304z" fill-rule="evenodd"></path><path fill="#4d5057" d="m81.03944 118.86796l0 0c0 -4.0689697 3.4334564 -7.367523 7.668831 -7.367523l0 0c2.033905 0 3.984497 0.7762146 5.4226837 2.157898c1.4381866 1.3816757 2.2461472 3.2556381 2.2461472 5.2096252l0 0c0 4.0689697 -3.4334488 7.3675156 -7.668831 7.3675156l0 0c-4.2353745 0 -7.668831 -3.2985458 -7.668831 -7.3675156z" fill-rule="evenodd"></path><path fill="#efefef" d="m83.1247 116.507866l0 0c-0.33818817 -1.5513611 1.2632217 -3.2136917 3.5768433 -3.7129135c2.3136215 -0.49922943 4.4633408 0.3536911 4.801529 1.9050522l-1.4051437 0.30319977l0 0c-0.16909027 -0.77568054 -1.5526276 -1.1355362 -3.0902176 -0.8037567c-1.5375824 0.33177185 -2.646965 1.2295456 -2.4778748 2.0052261z" fill-rule="evenodd"></path><path fill="#efefef" d="m106.449196 96.16354l0 0c-0.80519867 -1.4278946 -0.20902252 -3.286049 1.331604 -4.1503067c1.5406189 -0.8642502 3.4422913 -0.40732574 4.2474976 1.0205688l-1.294342 0.7260895c-0.40259552 -0.7139435 -1.3983994 -0.9171829 -2.2241821 -0.45394135c-0.8257828 0.46324158 -1.1688385 1.4175491 -0.76623535 2.1314926z" fill-rule="evenodd"></path><path fill="#efefef" d="m63.25816 96.16354l0 0c-0.8052063 -1.4278946 -0.20903015 -3.286049 1.3316002 -4.1503067c1.5406189 -0.8642502 3.4422913 -0.40732574 4.2474976 1.0205688l-1.294342 0.7260895c-0.40259552 -0.7139435 -1.3983994 -0.9171829 -2.2241821 -0.45394135c-0.8257828 0.46324158 -1.1688385 1.4175491 -0.76623535 2.1314926z" fill-rule="evenodd"></path></g></svg>

